<svg version="1.1" width="140px" height="140px" class="mb-30" id="Layer_3" xmlns="http://www.w3.org/2000/svg" xmlns:xlink="http://www.w3.org/1999/xlink" x="0px" y="0px"
	 viewBox="0 0 256 256" enable-background="new 0 0 256 256" xml:space="preserve">
<g>
	<g>
		<g>
			<circle fill="#382B73" cx="128" cy="128" r="119.4"/>
		</g>
	</g>
	<g>
		<g>
			<path fill="#291B4A" d="M122.668,50.5c-1.381,0-2.5,1.119-2.5,2.5v12.626c0,1.381,1.119,2.5,2.5,2.5h10.664
				c1.381,0,2.5-1.119,2.5-2.5V53c0-1.381-1.119-2.5-2.5-2.5s-2.5,1.119-2.5,2.5v10.126h-5.664V53
				C125.168,51.62,124.049,50.5,122.668,50.5z"/>
		</g>
		<g>
			<path fill="#291B4A" d="M133.332,213.5c1.381,0,2.5-1.119,2.5-2.5v-12.626c0-1.381-1.119-2.5-2.5-2.5h-10.664
				c-1.381,0-2.5,1.119-2.5,2.5V211c0,1.381,1.119,2.5,2.5,2.5s2.5-1.119,2.5-2.5v-10.126h5.664V211
				C130.832,212.38,131.951,213.5,133.332,213.5z"/>
		</g>
		<g>
			<path fill="#291B4A" d="M86.048,65c-0.69-1.197-2.223-1.604-3.415-0.915c-1.195,0.69-1.605,2.219-0.915,3.415l6.313,10.935
				c0.463,0.802,1.304,1.25,2.167,1.25c0.425,0,0.854-0.108,1.248-0.335l9.234-5.332c0.574-0.332,0.993-0.877,1.165-1.518
				s0.081-1.323-0.25-1.897l-6.313-10.935c-0.69-1.197-2.223-1.604-3.415-0.915c-1.195,0.69-1.605,2.219-0.915,3.415l5.063,8.77
				l-4.904,2.832L86.048,65z"/>
		</g>
		<g>
			<path fill="#291B4A" d="M169.952,199c0.69,1.197,2.222,1.604,3.415,0.915c1.195-0.69,1.605-2.219,0.915-3.415l-6.313-10.935
				c-0.69-1.197-2.223-1.605-3.415-0.915l-9.234,5.332c-0.574,0.332-0.993,0.877-1.165,1.518s-0.081,1.323,0.25,1.897l6.313,10.935
				c0.463,0.802,1.304,1.25,2.167,1.25c0.425,0,0.854-0.108,1.248-0.335c1.195-0.69,1.605-2.219,0.915-3.415l-5.063-8.77
				l4.904-2.832L169.952,199z"/>
		</g>
		<g>
			<path fill="#291B4A" d="M58.168,94.953c-1.193-0.69-2.725-0.281-3.415,0.915c-0.69,1.196-0.28,2.725,0.915,3.415l10.936,6.313
				c0.384,0.221,0.815,0.335,1.25,0.335c0.217,0,0.435-0.028,0.647-0.085c0.641-0.171,1.187-0.59,1.518-1.165l5.331-9.235
				c0.69-1.196,0.28-2.725-0.915-3.415L63.5,85.718c-1.193-0.69-2.725-0.281-3.415,0.915c-0.69,1.196-0.28,2.725,0.915,3.415
				l8.77,5.063l-2.831,4.905L58.168,94.953z"/>
		</g>
		<g>
			<path fill="#291B4A" d="M197.832,169.047c1.192,0.69,2.725,0.281,3.415-0.915c0.69-1.196,0.28-2.725-0.915-3.415l-10.936-6.313
				c-0.575-0.332-1.258-0.421-1.897-0.25c-0.641,0.171-1.187,0.59-1.518,1.165l-5.331,9.235c-0.69,1.196-0.28,2.725,0.915,3.415
				l10.935,6.313c0.394,0.228,0.823,0.335,1.248,0.335c0.863,0,1.704-0.449,2.167-1.25c0.69-1.196,0.28-2.725-0.915-3.415
				l-8.77-5.063l2.831-4.905L197.832,169.047z"/>
		</g>
		<g>
			<path fill="#291B4A" d="M49,134.832c-1.381,0-2.5,1.119-2.5,2.5s1.119,2.5,2.5,2.5h12.627c1.381,0,2.5-1.119,2.5-2.5v-10.663
				c0-1.381-1.119-2.5-2.5-2.5H49c-1.381,0-2.5,1.119-2.5,2.5s1.119,2.5,2.5,2.5h10.127v5.663H49z"/>
		</g>
		<g>
			<path fill="#291B4A" d="M207,129.168c1.381,0,2.5-1.119,2.5-2.5s-1.119-2.5-2.5-2.5h-12.627c-1.381,0-2.5,1.119-2.5,2.5v10.663
				c0,1.381,1.119,2.5,2.5,2.5H207c1.381,0,2.5-1.119,2.5-2.5s-1.119-2.5-2.5-2.5h-10.127v-5.663H207z"/>
		</g>
		<g>
			<path fill="#291B4A" d="M60.085,177.367c0.463,0.802,1.304,1.25,2.167,1.25c0.425,0,0.854-0.108,1.248-0.335l10.935-6.313
				c1.195-0.69,1.605-2.219,0.915-3.415l-5.331-9.235c-0.331-0.574-0.877-0.993-1.518-1.165s-1.322-0.082-1.897,0.25l-10.936,6.313
				c-1.195,0.69-1.605,2.219-0.915,3.415c0.69,1.196,2.222,1.605,3.415,0.915l8.771-5.063l2.831,4.905L61,173.952
				C59.805,174.643,59.395,176.171,60.085,177.367z"/>
		</g>
		<g>
			<path fill="#291B4A" d="M195.915,86.633c-0.691-1.197-2.222-1.605-3.415-0.915l-10.935,6.313
				c-1.195,0.69-1.605,2.219-0.915,3.415l5.331,9.235c0.331,0.574,0.877,0.993,1.518,1.165c0.213,0.057,0.431,0.085,0.647,0.085
				c0.435,0,0.866-0.114,1.25-0.335l10.936-6.313c1.195-0.69,1.605-2.219,0.915-3.415c-0.69-1.196-2.223-1.605-3.415-0.915
				l-8.771,5.063l-2.831-4.905l8.77-5.063C196.195,89.357,196.605,87.829,195.915,86.633z"/>
		</g>
		<g>
			<path fill="#291B4A" d="M91.867,205.247c0.394,0.228,0.823,0.335,1.248,0.335c0.863,0,1.704-0.448,2.167-1.25l6.313-10.935
				c0.331-0.574,0.422-1.256,0.25-1.897s-0.591-1.187-1.165-1.518l-9.234-5.332c-1.193-0.69-2.724-0.282-3.415,0.915L81.718,196.5
				c-0.69,1.196-0.28,2.725,0.915,3.415c1.192,0.69,2.725,0.282,3.415-0.915l5.063-8.77l4.904,2.832l-5.063,8.77
				C90.262,203.027,90.672,204.556,91.867,205.247z"/>
		</g>
		<g>
			<path fill="#291B4A" d="M164.133,58.753c-1.193-0.69-2.724-0.282-3.415,0.915l-6.313,10.935c-0.331,0.574-0.422,1.256-0.25,1.897
				s0.591,1.187,1.165,1.518l9.234,5.332c0.394,0.228,0.823,0.335,1.248,0.335c0.863,0,1.704-0.448,2.167-1.25l6.313-10.935
				c0.69-1.196,0.28-2.725-0.915-3.415c-1.193-0.69-2.725-0.282-3.415,0.915l-5.063,8.77l-4.904-2.832l5.063-8.77
				C165.738,60.973,165.328,59.444,164.133,58.753z"/>
		</g>
		<g>
			<path fill="#291B4A" d="M219.403,132c0-50.4-41.003-91.404-91.403-91.404S36.597,81.6,36.597,132S77.6,223.404,128,223.404
				S219.403,182.4,219.403,132z M41.597,132c0-47.643,38.761-86.404,86.403-86.404S214.403,84.357,214.403,132
				S175.643,218.404,128,218.404S41.597,179.643,41.597,132z"/>
		</g>
		<g>
			<path fill="#291B4A" d="M91.52,160.94l7.539,7.54c0.469,0.469,1.104,0.732,1.768,0.732s1.299-0.263,1.768-0.732l21.143-21.142
				c1.359,0.378,2.785,0.596,4.263,0.596c8.786,0,15.935-7.148,15.935-15.935c0-5.939-3.272-11.12-8.103-13.861V73.883
				c0-1.381-1.119-2.5-2.5-2.5h-10.664c-1.381,0-2.5,1.119-2.5,2.5v44.256c-4.83,2.74-8.103,7.922-8.103,13.861
				c0,1.478,0.218,2.904,0.597,4.264L91.52,157.405C90.543,158.381,90.543,159.964,91.52,160.94z M125.168,76.383h5.664v39.949
				c-0.921-0.166-1.864-0.267-2.832-0.267s-1.911,0.101-2.832,0.267V76.383z M128,121.065c6.029,0,10.935,4.905,10.935,10.935
				s-4.905,10.935-10.935,10.935s-10.935-4.905-10.935-10.935S121.971,121.065,128,121.065z M114.92,141.076
				c1.087,1.561,2.443,2.918,4.005,4.004l-18.098,18.097l-4.004-4.004L114.92,141.076z"/>
		</g>
	</g>
	<g>
		<g>
			<g>
				<path fill="#65C1D6" d="M122.668,46.5c-1.381,0-2.5,1.119-2.5,2.5v12.626c0,1.381,1.119,2.5,2.5,2.5h10.664
					c1.381,0,2.5-1.119,2.5-2.5V49c0-1.381-1.119-2.5-2.5-2.5s-2.5,1.119-2.5,2.5v10.126h-5.664V49
					C125.168,47.62,124.049,46.5,122.668,46.5z"/>
			</g>
			<g>
				<path fill="#65C1D6" d="M133.332,209.5c1.381,0,2.5-1.119,2.5-2.5v-12.626c0-1.381-1.119-2.5-2.5-2.5h-10.664
					c-1.381,0-2.5,1.119-2.5,2.5V207c0,1.381,1.119,2.5,2.5,2.5s2.5-1.119,2.5-2.5v-10.126h5.664V207
					C130.832,208.38,131.951,209.5,133.332,209.5z"/>
			</g>
		</g>
		<g>
			<g>
				<path fill="#D3D3D3" d="M86.048,61c-0.69-1.197-2.223-1.604-3.415-0.915c-1.195,0.69-1.605,2.219-0.915,3.415l6.313,10.935
					c0.463,0.802,1.304,1.25,2.167,1.25c0.425,0,0.854-0.108,1.248-0.335l9.234-5.332c0.574-0.332,0.993-0.877,1.165-1.518
					s0.081-1.323-0.25-1.897l-6.313-10.935c-0.69-1.197-2.223-1.604-3.415-0.915c-1.195,0.69-1.605,2.219-0.915,3.415l5.063,8.77
					l-4.904,2.832L86.048,61z"/>
			</g>
			<g>
				<path fill="#D3D3D3" d="M169.952,195c0.69,1.197,2.222,1.604,3.415,0.915c1.195-0.69,1.605-2.219,0.915-3.415l-6.313-10.935
					c-0.69-1.197-2.223-1.605-3.415-0.915l-9.234,5.332c-0.574,0.332-0.993,0.877-1.165,1.518s-0.081,1.323,0.25,1.897l6.313,10.935
					c0.463,0.802,1.304,1.25,2.167,1.25c0.425,0,0.854-0.108,1.248-0.335c1.195-0.69,1.605-2.219,0.915-3.415l-5.063-8.77
					l4.904-2.832L169.952,195z"/>
			</g>
		</g>
		<g>
			<g>
				<path fill="#D3D3D3" d="M58.168,90.953c-1.193-0.69-2.725-0.281-3.415,0.915c-0.69,1.196-0.28,2.725,0.915,3.415l10.936,6.313
					c0.384,0.221,0.815,0.335,1.25,0.335c0.217,0,0.435-0.028,0.647-0.085c0.641-0.171,1.187-0.59,1.518-1.165l5.331-9.235
					c0.69-1.196,0.28-2.725-0.915-3.415L63.5,81.718c-1.193-0.69-2.725-0.281-3.415,0.915c-0.69,1.196-0.28,2.725,0.915,3.415
					l8.77,5.063l-2.831,4.905L58.168,90.953z"/>
			</g>
			<g>
				<path fill="#D3D3D3" d="M197.832,165.047c1.192,0.69,2.725,0.281,3.415-0.915c0.69-1.196,0.28-2.725-0.915-3.415l-10.936-6.313
					c-0.575-0.332-1.258-0.421-1.897-0.25c-0.641,0.171-1.187,0.59-1.518,1.165l-5.331,9.235c-0.69,1.196-0.28,2.725,0.915,3.415
					l10.935,6.313c0.394,0.228,0.823,0.335,1.248,0.335c0.863,0,1.704-0.449,2.167-1.25c0.69-1.196,0.28-2.725-0.915-3.415
					l-8.77-5.063l2.831-4.905L197.832,165.047z"/>
			</g>
		</g>
		<g>
			<g>
				<path fill="#65C1D6" d="M49,130.832c-1.381,0-2.5,1.119-2.5,2.5s1.119,2.5,2.5,2.5h12.627c1.381,0,2.5-1.119,2.5-2.5v-10.663
					c0-1.381-1.119-2.5-2.5-2.5H49c-1.381,0-2.5,1.119-2.5,2.5s1.119,2.5,2.5,2.5h10.127v5.663H49z"/>
			</g>
			<g>
				<path fill="#65C1D6" d="M207,125.168c1.381,0,2.5-1.119,2.5-2.5s-1.119-2.5-2.5-2.5h-12.627c-1.381,0-2.5,1.119-2.5,2.5v10.663
					c0,1.381,1.119,2.5,2.5,2.5H207c1.381,0,2.5-1.119,2.5-2.5s-1.119-2.5-2.5-2.5h-10.127v-5.663H207z"/>
			</g>
		</g>
		<g>
			<g>
				<path fill="#D3D3D3" d="M60.085,173.367c0.463,0.802,1.304,1.25,2.167,1.25c0.425,0,0.854-0.108,1.248-0.335l10.935-6.313
					c1.195-0.69,1.605-2.219,0.915-3.415l-5.331-9.235c-0.331-0.574-0.877-0.993-1.518-1.165s-1.322-0.082-1.897,0.25l-10.936,6.313
					c-1.195,0.69-1.605,2.219-0.915,3.415c0.69,1.196,2.222,1.605,3.415,0.915l8.771-5.063l2.831,4.905L61,169.952
					C59.805,170.643,59.395,172.171,60.085,173.367z"/>
			</g>
			<g>
				<path fill="#D3D3D3" d="M195.915,82.633c-0.691-1.197-2.222-1.605-3.415-0.915l-10.935,6.313
					c-1.195,0.69-1.605,2.219-0.915,3.415l5.331,9.235c0.331,0.574,0.877,0.993,1.518,1.165c0.213,0.057,0.431,0.085,0.647,0.085
					c0.435,0,0.866-0.114,1.25-0.335l10.936-6.313c1.195-0.69,1.605-2.219,0.915-3.415c-0.69-1.196-2.223-1.605-3.415-0.915
					l-8.771,5.063l-2.831-4.905l8.77-5.063C196.195,85.357,196.605,83.829,195.915,82.633z"/>
			</g>
		</g>
		<g>
			<g>
				<path fill="#D3D3D3" d="M91.867,201.247c0.394,0.228,0.823,0.335,1.248,0.335c0.863,0,1.704-0.448,2.167-1.25l6.313-10.935
					c0.331-0.574,0.422-1.256,0.25-1.897s-0.591-1.187-1.165-1.518l-9.234-5.332c-1.193-0.69-2.724-0.282-3.415,0.915L81.718,192.5
					c-0.69,1.196-0.28,2.725,0.915,3.415c1.192,0.69,2.725,0.282,3.415-0.915l5.063-8.77l4.904,2.832l-5.063,8.77
					C90.262,199.027,90.672,200.556,91.867,201.247z"/>
			</g>
			<g>
				<path fill="#D3D3D3" d="M164.133,54.753c-1.193-0.69-2.724-0.282-3.415,0.915l-6.313,10.935
					c-0.331,0.574-0.422,1.256-0.25,1.897s0.591,1.187,1.165,1.518l9.234,5.332c0.394,0.228,0.823,0.335,1.248,0.335
					c0.863,0,1.704-0.448,2.167-1.25l6.313-10.935c0.69-1.196,0.28-2.725-0.915-3.415c-1.193-0.69-2.725-0.282-3.415,0.915
					l-5.063,8.77l-4.904-2.832l5.063-8.77C165.738,56.973,165.328,55.444,164.133,54.753z"/>
			</g>
		</g>
		<g>
			<g>
				<g>
					<path fill="#EBE7F2" d="M86.048,61c-0.463-0.803-1.304-1.25-2.168-1.25c-0.424,0-0.854,0.108-1.247,0.335
						c-1.195,0.69-1.605,2.219-0.915,3.415l6.313,10.935c0.463,0.802,1.304,1.25,2.167,1.25c0.425,0,0.854-0.108,1.248-0.335
						l9.234-5.332c0.574-0.332,0.993-0.877,1.165-1.518s0.081-1.323-0.25-1.897l-6.313-10.935c-0.463-0.803-1.304-1.25-2.168-1.25
						c-0.424,0-0.854,0.108-1.247,0.335c-1.195,0.69-1.605,2.219-0.915,3.415l5.063,8.77l-4.904,2.832L86.048,61z M91.861,71.069
						l4.904-2.832c0.344-0.199,0.596-0.527,0.699-0.911c0.103-0.384,0.049-0.794-0.15-1.138l-5.063-8.77
						c-0.276-0.477-0.111-1.09,0.366-1.366c0.154-0.089,0.321-0.134,0.497-0.134c0.358,0,0.691,0.191,0.869,0.5l6.313,10.934
						c0.134,0.232,0.17,0.502,0.101,0.759c-0.069,0.258-0.235,0.474-0.466,0.608l-9.235,5.332c-0.154,0.089-0.321,0.134-0.497,0.134
						c-0.357,0-0.69-0.192-0.868-0.501L83.017,62.75c-0.276-0.477-0.111-1.09,0.366-1.366c0.154-0.089,0.321-0.134,0.497-0.134
						c0.358,0,0.691,0.191,0.869,0.5l5.063,8.77c0.278,0.481,0.782,0.75,1.3,0.75C91.367,71.27,91.625,71.205,91.861,71.069z"/>
				</g>
			</g>
			<g>
				<g>
					<path fill="#EBE7F2" d="M169.952,195c0.463,0.803,1.304,1.25,2.168,1.25c0.424,0,0.854-0.108,1.247-0.335
						c1.195-0.69,1.605-2.219,0.915-3.415l-6.313-10.935c-0.463-0.803-1.304-1.251-2.168-1.251c-0.424,0-0.854,0.108-1.247,0.336
						l-9.234,5.332c-0.574,0.332-0.993,0.877-1.165,1.518s-0.081,1.323,0.25,1.897l6.313,10.935c0.463,0.802,1.304,1.25,2.167,1.25
						c0.425,0,0.854-0.108,1.248-0.335c1.195-0.69,1.605-2.219,0.915-3.415l-5.063-8.77l4.904-2.832L169.952,195z M164.139,184.931
						l-4.904,2.832c-0.344,0.199-0.596,0.527-0.699,0.911c-0.103,0.384-0.049,0.794,0.15,1.138l5.063,8.77
						c0.276,0.477,0.111,1.09-0.366,1.366c-0.155,0.089-0.323,0.135-0.498,0.135c-0.357,0-0.69-0.192-0.868-0.501l-6.313-10.934
						c-0.134-0.232-0.17-0.502-0.101-0.759c0.069-0.258,0.235-0.474,0.466-0.608l9.236-5.332c0.153-0.089,0.32-0.134,0.496-0.134
						c0.358,0,0.691,0.192,0.869,0.501l6.313,10.935c0.276,0.477,0.111,1.09-0.366,1.366c-0.154,0.089-0.322,0.134-0.498,0.134
						c-0.358,0-0.691-0.191-0.869-0.5l-5.063-8.77c-0.278-0.481-0.782-0.75-1.3-0.75
						C164.633,184.73,164.375,184.795,164.139,184.931z"/>
				</g>
			</g>
		</g>
		<g>
			<g>
				<g>
					<path fill="#EBE7F2" d="M58.168,90.953c-0.393-0.227-0.823-0.335-1.247-0.335c-0.864,0-1.705,0.448-2.168,1.25
						c-0.69,1.196-0.28,2.725,0.915,3.415l10.936,6.313c0.384,0.221,0.815,0.335,1.25,0.335c0.217,0,0.435-0.028,0.647-0.085
						c0.641-0.171,1.187-0.59,1.518-1.165l5.331-9.235c0.69-1.196,0.28-2.725-0.915-3.415L63.5,81.718
						c-0.393-0.227-0.823-0.336-1.247-0.336c-0.864,0-1.705,0.448-2.168,1.251c-0.69,1.196-0.28,2.725,0.915,3.415l8.77,5.063
						l-2.831,4.905L58.168,90.953z M68.238,96.766l2.831-4.905c0.414-0.717,0.168-1.635-0.549-2.049l-8.769-5.063
						c-0.478-0.276-0.642-0.889-0.366-1.366c0.178-0.309,0.511-0.5,0.869-0.5c0.175,0,0.342,0.045,0.497,0.135l10.934,6.313
						c0.478,0.276,0.642,0.889,0.366,1.366l-5.331,9.236c-0.133,0.231-0.348,0.396-0.607,0.465
						c-0.084,0.023-0.172,0.034-0.259,0.034c-0.175,0-0.348-0.047-0.5-0.134l-10.935-6.313c-0.478-0.276-0.642-0.889-0.366-1.366
						c0.178-0.309,0.511-0.5,0.869-0.5c0.176,0,0.343,0.045,0.497,0.134l8.771,5.063c0.23,0.133,0.489,0.201,0.75,0.201
						c0.13,0,0.261-0.017,0.388-0.051C67.711,97.361,68.039,97.11,68.238,96.766z"/>
				</g>
			</g>
			<g>
				<g>
					<path fill="#EBE7F2" d="M197.832,165.047c0.393,0.227,0.822,0.336,1.247,0.336c0.864,0,1.705-0.448,2.168-1.251
						c0.69-1.196,0.28-2.725-0.915-3.415l-10.936-6.313c-0.384-0.221-0.816-0.335-1.25-0.335c-0.217,0-0.434,0.028-0.647,0.085
						c-0.641,0.171-1.187,0.59-1.518,1.165l-5.331,9.235c-0.69,1.196-0.28,2.725,0.915,3.415l10.935,6.313
						c0.394,0.228,0.823,0.335,1.248,0.335c0.863,0,1.704-0.449,2.167-1.25c0.69-1.196,0.28-2.725-0.915-3.415l-8.77-5.063
						l2.831-4.905L197.832,165.047z M187.762,159.234l-2.831,4.905c-0.414,0.717-0.168,1.635,0.549,2.049l8.769,5.063
						c0.478,0.276,0.642,0.889,0.366,1.366c-0.178,0.309-0.511,0.5-0.868,0.5c-0.176,0-0.343-0.045-0.498-0.135l-10.934-6.313
						c-0.478-0.276-0.642-0.889-0.366-1.366l5.331-9.236c0.133-0.231,0.348-0.396,0.606-0.465c0.084-0.023,0.171-0.034,0.259-0.034
						c0.176,0,0.349,0.046,0.5,0.134l10.935,6.313c0.478,0.276,0.642,0.889,0.366,1.366c-0.178,0.309-0.511,0.5-0.869,0.5
						c-0.175,0-0.342-0.045-0.497-0.135l-8.771-5.063c-0.23-0.133-0.489-0.201-0.75-0.201c-0.13,0-0.261,0.017-0.388,0.051
						C188.289,158.638,187.961,158.89,187.762,159.234z"/>
				</g>
			</g>
		</g>
		<g>
			<g>
				<g>
					<path fill="#EBE7F2" d="M60.085,173.367c0.463,0.802,1.304,1.25,2.167,1.25c0.425,0,0.854-0.108,1.248-0.335l10.935-6.313
						c1.195-0.69,1.605-2.219,0.915-3.415l-5.331-9.235c-0.331-0.574-0.877-0.993-1.518-1.165c-0.213-0.057-0.431-0.085-0.647-0.085
						c-0.435,0-0.866,0.113-1.25,0.335l-10.936,6.313c-1.195,0.69-1.605,2.219-0.915,3.415c0.463,0.802,1.304,1.251,2.168,1.251
						c0.424,0,0.854-0.108,1.247-0.336l8.771-5.063l2.831,4.905L61,169.952C59.805,170.643,59.395,172.171,60.085,173.367z
						 M61.75,171.251l8.77-5.063c0.717-0.414,0.963-1.331,0.549-2.049l-2.831-4.905c-0.199-0.345-0.526-0.596-0.911-0.699
						c-0.128-0.034-0.258-0.051-0.388-0.051c-0.261,0-0.52,0.068-0.75,0.201l-8.772,5.064c-0.153,0.089-0.32,0.134-0.496,0.134
						c-0.358,0-0.691-0.192-0.869-0.501c-0.276-0.477-0.111-1.09,0.366-1.366l10.935-6.313c0.152-0.088,0.326-0.134,0.501-0.134
						c0.087,0,0.175,0.011,0.26,0.034c0.258,0.069,0.473,0.234,0.606,0.465l5.331,9.235c0.276,0.477,0.111,1.09-0.366,1.366
						l-10.935,6.313c-0.154,0.089-0.321,0.134-0.497,0.134c-0.357,0-0.69-0.192-0.868-0.501
						C61.108,172.14,61.273,171.527,61.75,171.251z"/>
				</g>
			</g>
			<g>
				<g>
					<path fill="#EBE7F2" d="M195.915,82.633c-0.464-0.803-1.304-1.251-2.168-1.251c-0.424,0-0.854,0.108-1.247,0.336l-10.935,6.313
						c-1.195,0.69-1.605,2.219-0.915,3.415l5.331,9.235c0.331,0.574,0.877,0.993,1.518,1.165c0.213,0.057,0.431,0.085,0.647,0.085
						c0.435,0,0.866-0.114,1.25-0.335l10.936-6.313c1.195-0.69,1.605-2.219,0.915-3.415c-0.463-0.802-1.305-1.25-2.168-1.25
						c-0.424,0-0.854,0.108-1.247,0.335l-8.771,5.063l-2.831-4.905l8.77-5.063C196.195,85.357,196.605,83.829,195.915,82.633z
						 M194.25,84.749l-8.77,5.063c-0.717,0.414-0.963,1.331-0.549,2.049l2.831,4.905c0.199,0.345,0.526,0.596,0.911,0.699
						c0.128,0.034,0.258,0.051,0.388,0.051c0.261,0,0.52-0.068,0.75-0.201l8.772-5.064c0.153-0.089,0.32-0.134,0.495-0.134
						c0.358,0,0.691,0.192,0.869,0.5c0.276,0.477,0.111,1.09-0.366,1.366l-10.935,6.312c-0.153,0.088-0.326,0.135-0.501,0.135
						c-0.087,0-0.174-0.012-0.26-0.034c-0.258-0.069-0.473-0.234-0.606-0.465l-5.331-9.235c-0.276-0.477-0.111-1.09,0.366-1.366
						l10.936-6.314c0.154-0.089,0.32-0.134,0.496-0.134c0.358,0,0.691,0.192,0.869,0.501
						C194.892,83.86,194.727,84.473,194.25,84.749z"/>
				</g>
			</g>
		</g>
		<g>
			<g>
				<g>
					<path fill="#EBE7F2" d="M91.867,201.247c0.394,0.228,0.823,0.335,1.248,0.335c0.863,0,1.704-0.448,2.167-1.25l6.313-10.935
						c0.331-0.574,0.422-1.256,0.25-1.897s-0.591-1.187-1.165-1.518l-9.234-5.332c-0.393-0.227-0.823-0.336-1.247-0.336
						c-0.863,0-1.704,0.448-2.168,1.251L81.718,192.5c-0.69,1.196-0.28,2.725,0.915,3.415c0.393,0.227,0.823,0.335,1.247,0.335
						c0.864,0,1.705-0.448,2.168-1.25l5.063-8.77l4.904,2.832l-5.063,8.77C90.262,199.027,90.672,200.556,91.867,201.247z
						 M92.251,198.582l5.063-8.77c0.199-0.344,0.253-0.754,0.15-1.138c-0.103-0.384-0.354-0.712-0.699-0.911l-4.904-2.832
						c-0.236-0.136-0.494-0.201-0.749-0.201c-0.518,0-1.022,0.269-1.3,0.75l-5.064,8.77c-0.178,0.308-0.511,0.5-0.869,0.5
						c-0.176,0-0.342-0.045-0.497-0.134c-0.478-0.276-0.642-0.889-0.366-1.366l6.313-10.934c0.178-0.309,0.511-0.501,0.869-0.501
						c0.176,0,0.343,0.045,0.497,0.135l9.234,5.332c0.231,0.134,0.397,0.349,0.466,0.608c0.069,0.257,0.033,0.527-0.1,0.758
						l-6.314,10.935c-0.178,0.309-0.51,0.5-0.868,0.5c-0.176,0-0.343-0.045-0.498-0.134
						C92.14,199.672,91.976,199.059,92.251,198.582z"/>
				</g>
			</g>
			<g>
				<g>
					<path fill="#EBE7F2" d="M164.133,54.753c-0.393-0.227-0.823-0.335-1.247-0.335c-0.864,0-1.704,0.448-2.168,1.25l-6.313,10.935
						c-0.331,0.574-0.422,1.256-0.25,1.897s0.591,1.187,1.165,1.518l9.234,5.332c0.394,0.228,0.823,0.335,1.248,0.335
						c0.863,0,1.704-0.448,2.167-1.25l6.313-10.935c0.69-1.196,0.28-2.725-0.915-3.415c-0.393-0.227-0.823-0.335-1.247-0.335
						c-0.864,0-1.705,0.448-2.168,1.25l-5.063,8.77l-4.904-2.832l5.063-8.77C165.738,56.973,165.328,55.444,164.133,54.753z
						 M163.749,57.418l-5.063,8.77c-0.199,0.345-0.253,0.754-0.15,1.138c0.103,0.384,0.354,0.712,0.699,0.911l4.904,2.832
						c0.236,0.136,0.494,0.201,0.749,0.201c0.518,0,1.022-0.269,1.3-0.75l5.064-8.77c0.178-0.308,0.511-0.5,0.869-0.5
						c0.176,0,0.343,0.045,0.497,0.134c0.478,0.276,0.642,0.889,0.366,1.366l-6.314,10.935c-0.178,0.308-0.51,0.5-0.868,0.5
						c-0.176,0-0.343-0.045-0.498-0.134l-9.234-5.332c-0.231-0.134-0.397-0.349-0.466-0.608c-0.069-0.257-0.033-0.527,0.1-0.758
						l6.313-10.934c0.178-0.309,0.511-0.501,0.869-0.501c0.176,0,0.343,0.045,0.497,0.134
						C163.86,56.328,164.024,56.941,163.749,57.418z"/>
				</g>
			</g>
		</g>
		<g>
			<path fill="#ED9ABC" d="M219.403,128c0-50.4-41.003-91.404-91.403-91.404S36.597,77.6,36.597,128S77.6,219.404,128,219.404
				S219.403,178.4,219.403,128z M41.597,128c0-47.643,38.761-86.404,86.403-86.404S214.403,80.357,214.403,128
				S175.643,214.404,128,214.404S41.597,175.643,41.597,128z"/>
		</g>
		<g>
			<g>
				<path fill="#E54890" d="M219.403,128c0-50.4-41.003-91.404-91.403-91.404S36.597,77.6,36.597,128S77.6,219.404,128,219.404
					S219.403,178.4,219.403,128z M38.097,128c0-49.573,40.33-89.904,89.903-89.904S217.903,78.427,217.903,128
					s-40.33,89.904-89.903,89.904S38.097,177.573,38.097,128z"/>
				<path fill="#E54890" d="M215.903,128c0-48.47-39.433-87.904-87.903-87.904S40.097,79.53,40.097,128
					c0,48.47,39.433,87.904,87.903,87.904S215.903,176.47,215.903,128z M41.597,128c0-47.643,38.761-86.404,86.403-86.404
					S214.403,80.357,214.403,128S175.643,214.404,128,214.404S41.597,175.643,41.597,128z"/>
			</g>
		</g>
		<g>
			<path fill="#65C1D6" d="M143.935,128c0-8.786-7.148-15.935-15.935-15.935s-15.935,7.148-15.935,15.935
				s7.148,15.935,15.935,15.935S143.935,136.786,143.935,128z M117.065,128c0-6.029,4.905-10.935,10.935-10.935
				s10.935,4.905,10.935,10.935s-4.905,10.935-10.935,10.935S117.065,134.029,117.065,128z"/>
		</g>
		<g>
			<g>
				<path fill="#65C1D6" d="M133.332,117.065c1.381,0,2.5-1.119,2.5-2.5V69.883c0-1.381-1.119-2.5-2.5-2.5h-10.664
					c-1.381,0-2.5,1.119-2.5,2.5v44.682c0,1.381,1.119,2.5,2.5,2.5s2.5-1.119,2.5-2.5V72.383h5.664v42.182
					C130.832,115.946,131.951,117.065,133.332,117.065z"/>
			</g>
		</g>
		<g>
			<g>
				<path fill="#65C1D6" d="M116.912,131.549c-0.977-0.977-2.559-0.977-3.535,0L91.52,153.405c-0.977,0.976-0.977,2.559,0,3.535
					l7.539,7.54c0.469,0.469,1.104,0.732,1.768,0.732s1.299-0.263,1.768-0.732l21.857-21.856c0.977-0.976,0.977-2.559,0-3.535
					c-0.977-0.977-2.559-0.977-3.535,0l-20.09,20.088l-4.004-4.004l20.09-20.089C117.889,134.108,117.889,132.525,116.912,131.549z"
					/>
			</g>
		</g>
		<g>
			<g>
				<path fill="#149CB2" d="M122.668,46.5c-1.381,0-2.5,1.119-2.5,2.5v12.626c0,1.381,1.119,2.5,2.5,2.5h10.664
					c1.381,0,2.5-1.119,2.5-2.5V49c0-1.381-1.119-2.5-2.5-2.5s-2.5,1.119-2.5,2.5v10.126h-5.664V49
					C125.168,47.62,124.049,46.5,122.668,46.5z M130.832,60.626c0.828,0,1.5-0.672,1.5-1.5V49c0-0.551,0.449-1,1-1s1,0.449,1,1
					v12.626c0,0.551-0.449,1-1,1h-10.664c-0.551,0-1-0.449-1-1V49c0-0.551,0.449-1,1-1s1,0.449,1,1v10.126
					c0,0.828,0.672,1.5,1.5,1.5H130.832z"/>
			</g>
			<g>
				<path fill="#149CB2" d="M133.332,209.5c1.381,0,2.5-1.119,2.5-2.5v-12.626c0-1.381-1.119-2.5-2.5-2.5h-10.664
					c-1.381,0-2.5,1.119-2.5,2.5V207c0,1.381,1.119,2.5,2.5,2.5s2.5-1.119,2.5-2.5v-10.126h5.664V207
					C130.832,208.38,131.951,209.5,133.332,209.5z M125.168,195.374c-0.828,0-1.5,0.672-1.5,1.5V207c0,0.551-0.449,1-1,1
					s-1-0.449-1-1v-12.626c0-0.551,0.449-1,1-1h10.664c0.551,0,1,0.449,1,1V207c0,0.551-0.449,1-1,1s-1-0.449-1-1v-10.126
					c0-0.828-0.672-1.5-1.5-1.5H125.168z"/>
			</g>
			<g>
				<path fill="#149CB2" d="M49,130.832c-1.381,0-2.5,1.119-2.5,2.5s1.119,2.5,2.5,2.5h12.627c1.381,0,2.5-1.119,2.5-2.5v-10.663
					c0-1.381-1.119-2.5-2.5-2.5H49c-1.381,0-2.5,1.119-2.5,2.5s1.119,2.5,2.5,2.5h10.127v5.663H49z M59.127,123.668H49
					c-0.551,0-1-0.449-1-1s0.449-1,1-1h12.627c0.551,0,1,0.449,1,1v10.663c0,0.551-0.449,1-1,1H49c-0.551,0-1-0.449-1-1s0.449-1,1-1
					h10.127c0.828,0,1.5-0.672,1.5-1.5v-5.663C60.627,124.34,59.955,123.668,59.127,123.668z"/>
			</g>
			<g>
				<path fill="#149CB2" d="M207,125.168c1.381,0,2.5-1.119,2.5-2.5s-1.119-2.5-2.5-2.5h-12.627c-1.381,0-2.5,1.119-2.5,2.5v10.663
					c0,1.381,1.119,2.5,2.5,2.5H207c1.381,0,2.5-1.119,2.5-2.5s-1.119-2.5-2.5-2.5h-10.127v-5.663H207z M196.873,132.332H207
					c0.551,0,1,0.449,1,1s-0.449,1-1,1h-12.627c-0.551,0-1-0.449-1-1v-10.663c0-0.551,0.449-1,1-1H207c0.551,0,1,0.449,1,1
					s-0.449,1-1,1h-10.127c-0.828,0-1.5,0.672-1.5,1.5v5.663C195.373,131.66,196.045,132.332,196.873,132.332z"/>
			</g>
			<g>
				<path fill="#149CB2" d="M99.765,160.238c0.281,0.281,0.663,0.439,1.061,0.439c0.398,0,0.779-0.158,1.061-0.439l18.098-18.097
					c0.314-0.314,0.473-0.751,0.433-1.194c-0.039-0.442-0.273-0.845-0.637-1.098c-1.42-0.988-2.642-2.21-3.63-3.63
					c-0.254-0.365-0.656-0.598-1.098-0.637c-0.044-0.004-0.089-0.006-0.133-0.006c-0.396,0-0.778,0.157-1.061,0.439l-18.098,18.097
					c-0.586,0.586-0.586,1.536,0,2.121L99.765,160.238z M114.92,137.076c1.087,1.561,2.443,2.918,4.005,4.004l-18.098,18.097
					l-4.004-4.004L114.92,137.076z"/>
				<path fill="#149CB2" d="M125.168,113.832c0.089,0,0.178-0.008,0.266-0.024c0.906-0.164,1.746-0.243,2.566-0.243
					s1.659,0.079,2.566,0.243c0.089,0.016,0.178,0.024,0.266,0.024c0.349,0,0.69-0.122,0.962-0.349
					c0.341-0.285,0.538-0.707,0.538-1.151V72.383c0-0.828-0.672-1.5-1.5-1.5h-5.664c-0.828,0-1.5,0.672-1.5,1.5v39.949
					c0,0.444,0.197,0.866,0.538,1.151C124.478,113.711,124.819,113.832,125.168,113.832z M125.168,72.383h5.664v39.949
					c-0.921-0.166-1.864-0.267-2.832-0.267s-1.911,0.101-2.832,0.267V72.383z"/>
				<path fill="#149CB2" d="M91.52,156.94l7.539,7.54c0.469,0.469,1.104,0.732,1.768,0.732s1.299-0.263,1.768-0.732l21.143-21.142
					c1.359,0.378,2.785,0.596,4.263,0.596c8.786,0,15.935-7.148,15.935-15.935c0-5.939-3.272-11.12-8.103-13.861V69.883
					c0-1.381-1.119-2.5-2.5-2.5h-10.664c-1.381,0-2.5,1.119-2.5,2.5v44.256c-4.83,2.74-8.103,7.922-8.103,13.861
					c0,1.478,0.218,2.904,0.597,4.264L91.52,153.405C90.543,154.381,90.543,155.964,91.52,156.94z M92.58,154.466l21.143-21.142
					c0.383-0.383,0.53-0.942,0.384-1.463c-0.359-1.29-0.542-2.59-0.542-3.861c0-5.175,2.814-9.986,7.343-12.556
					c0.47-0.266,0.76-0.765,0.76-1.305V69.883c0-0.551,0.449-1,1-1h10.664c0.551,0,1,0.449,1,1v44.256c0,0.54,0.29,1.038,0.76,1.305
					c4.529,2.57,7.343,7.381,7.343,12.556c0,7.959-6.475,14.435-14.435,14.435c-1.271,0-2.57-0.182-3.861-0.542
					c-0.133-0.037-0.268-0.055-0.402-0.055c-0.392,0-0.776,0.154-1.061,0.439l-21.144,21.143c-0.188,0.189-0.439,0.293-0.706,0.293
					c-0.267,0-0.518-0.104-0.707-0.293l-7.539-7.54c-0.189-0.189-0.293-0.44-0.293-0.707S92.391,154.655,92.58,154.466z"/>
				<path fill="#149CB2" d="M128,140.435c6.856,0,12.435-5.578,12.435-12.435s-5.578-12.435-12.435-12.435
					s-12.435,5.578-12.435,12.435S121.144,140.435,128,140.435z M128,117.065c6.029,0,10.935,4.905,10.935,10.935
					s-4.905,10.935-10.935,10.935s-10.935-4.905-10.935-10.935S121.971,117.065,128,117.065z"/>
			</g>
		</g>
	</g>
</g>
</svg>
