<svg xmlns="http://www.w3.org/2000/svg" width="128" height="128" viewBox="0 0 128 128">
  <title>HACKER</title>
  <g>
    <path d="M110,102.223a13,13,0,0,0-9.908-11.269L75.921,85.181l-.958-11.273h0A36.492,36.492,0,0,1,70,76.972a13.191,13.191,0,0,1-11.992,0,36.372,36.372,0,0,1-4.963-3.063h0l-.957,11.272L27.906,90.954A13,13,0,0,0,18,102.223l-2.072,19.47h96.146Z" fill="#6e5a64"/>
    <path d="M87.733,72.579S99.966,62.193,99.966,50.067c0-12.573-25.822-14.314-35.966-14.314S28.034,37.494,28.034,50.067c0,12.126,12.232,22.512,12.232,22.512Z" fill="#64505a"/>
    <path d="M64,35.753c-5.742,0-16.5.563-24.759,3.328v5.711c0,19.472,11.435,28.436,18.763,32.18a13.191,13.191,0,0,0,11.992,0c7.328-3.744,18.763-12.708,18.763-32.18V39.081C80.5,36.316,69.742,35.753,64,35.753Z" fill="#ffe1a0"/>
    <rect x="26.484" y="72.579" width="75.032" height="49.114" rx="3.498" fill="#a5cdff"/>
    <path d="M70.1,97.136a6.1,6.1,0,1,1-6.1-6.1A6.1,6.1,0,0,1,70.1,97.136Z" fill="#edebed"/>
    <path d="M61.384,46.389A3.982,3.982,0,0,0,58.357,42.3a23.228,23.228,0,0,0-5.326-.554,15.615,15.615,0,0,0-2.578.2,4.973,4.973,0,0,0-4.106,5.4c.3,3.107,1.52,7.044,5.691,7.3C57.243,54.96,61.1,51.9,61.384,46.389Z" fill="#6e5a64"/>
    <path d="M66.616,46.389A3.982,3.982,0,0,1,69.643,42.3a23.225,23.225,0,0,1,5.325-.554,15.619,15.619,0,0,1,2.579.2,4.973,4.973,0,0,1,4.106,5.4c-.305,3.107-1.52,7.044-5.691,7.3C70.757,54.96,66.9,51.9,66.616,46.389Z" fill="#6e5a64"/>
    <path d="M64,35.753c9.469,0,32.592,1.52,35.628,11.949h.008S89.339,6.307,64,6.307,28.364,47.7,28.364,47.7h.008C31.408,37.273,54.531,35.753,64,35.753Z" fill="#6e5a64"/>
    <g>
      <path d="M113.813,121.508l-2.072-19.471a14.848,14.848,0,0,0-8.475-11.819V76.077a5.255,5.255,0,0,0-5.248-5.248h-6c3.81-4.12,9.7-11.919,9.7-20.763a10.382,10.382,0,0,0-.381-2.775V47.28A95.17,95.17,0,0,0,91.4,23.663a1.75,1.75,0,0,0-2.992,1.816,87.057,87.057,0,0,1,6.956,14.657,29.487,29.487,0,0,0-5.921-2.673c-.038-.017-.08-.025-.12-.039-.98-.328-2-.638-3.1-.923C77.549,34.246,67.792,34,64,34s-13.549.243-22.227,2.5c-1.121.291-2.171.609-3.171.946-.015,0-.031.008-.045.014a29.551,29.551,0,0,0-5.914,2.669C36.993,28.438,47.014,8.057,64,8.057c6.917,0,13.35,3.383,19.117,10.058a1.75,1.75,0,0,0,2.649-2.289C79.3,8.349,71.979,4.557,64,4.557c-11.034,0-21.011,7.468-28.851,21.6a96.484,96.484,0,0,0-8.483,21.124l0,.013a10.414,10.414,0,0,0-.38,2.774c0,8.844,5.891,16.643,9.7,20.763h-6a5.255,5.255,0,0,0-5.248,5.248V90.218a14.849,14.849,0,0,0-8.475,11.819l-2.073,19.471a1.751,1.751,0,0,0,1.555,1.926c.064.006.126.009.188.009a1.751,1.751,0,0,0,1.738-1.564l2.072-19.471a11.329,11.329,0,0,1,5-8.19V118.2a5.254,5.254,0,0,0,5.248,5.248H34.8a1.75,1.75,0,0,0,0-3.5H29.982a1.75,1.75,0,0,1-1.748-1.748V76.077a1.75,1.75,0,0,1,1.748-1.748H98.018a1.75,1.75,0,0,1,1.748,1.748V118.2a1.75,1.75,0,0,1-1.748,1.748H58.2a1.75,1.75,0,0,0,0,3.5H98.018a5.254,5.254,0,0,0,5.248-5.248V94.218a11.333,11.333,0,0,1,4.995,8.19l2.072,19.471a1.75,1.75,0,0,0,1.738,1.564c.062,0,.124,0,.188-.009A1.75,1.75,0,0,0,113.813,121.508ZM87.063,70.829h-6.03c4.856-5.257,9.476-13.539,9.476-26.037V41.639c4.574,1.924,7.707,4.646,7.707,8.427C98.216,59.94,89.216,68.841,87.063,70.829ZM64,37.5c6.7,0,15.856.738,23.009,2.89v4.4c0,10.962-3.71,19.714-11.009,26.037H52c-7.3-6.323-11.009-15.075-11.009-26.037v-4.4C48.144,38.241,57.3,37.5,64,37.5ZM29.784,50.066c0-3.781,3.132-6.5,7.707-8.427v3.153c0,12.5,4.62,20.78,9.476,26.037H40.936C38.783,68.846,29.784,59.966,29.784,50.066Z"/>
      <path d="M48.539,119.943h-4.5a1.75,1.75,0,1,0,0,3.5h4.5a1.75,1.75,0,0,0,0-3.5Z"/>
      <path d="M64,104.985a7.85,7.85,0,1,0-7.85-7.849A7.859,7.859,0,0,0,64,104.985Zm0-12.2a4.35,4.35,0,1,1-4.35,4.35A4.355,4.355,0,0,1,64,92.786Z"/>
      <path d="M69.3,62.25H58.7a1.75,1.75,0,0,0,0,3.5H69.3a1.75,1.75,0,0,0,0-3.5Z"/>
      <path d="M44.606,47.519c.537,5.467,3.138,8.619,7.326,8.873.285.016.567.025.845.025a10.349,10.349,0,0,0,7.06-2.512,10.142,10.142,0,0,0,3.216-6.582h1.894a10.139,10.139,0,0,0,3.216,6.582,10.345,10.345,0,0,0,7.059,2.512c.278,0,.56-.009.845-.025,4.189-.254,6.79-3.406,7.327-8.873a6.736,6.736,0,0,0-5.561-7.3A17.535,17.535,0,0,0,74.969,40a25.1,25.1,0,0,0-5.728.6,5.664,5.664,0,0,0-3.862,3.225H62.621A5.664,5.664,0,0,0,58.759,40.6a25.1,25.1,0,0,0-5.728-.6,17.578,17.578,0,0,0-2.866.226A6.736,6.736,0,0,0,44.606,47.519ZM70.046,44a21.658,21.658,0,0,1,4.923-.507,14.086,14.086,0,0,1,2.29.179,3.225,3.225,0,0,1,2.652,3.5c-.359,3.654-1.723,5.579-4.055,5.72A7.192,7.192,0,0,1,70.5,51.3a6.984,6.984,0,0,1-2.131-5A2.22,2.22,0,0,1,70.046,44Zm-19.307-.328a14.129,14.129,0,0,1,2.292-.179A21.658,21.658,0,0,1,57.954,44a2.22,2.22,0,0,1,1.682,2.3,6.98,6.98,0,0,1-2.131,5,7.18,7.18,0,0,1-5.362,1.6c-2.332-.141-3.695-2.066-4.054-5.72A3.225,3.225,0,0,1,50.739,43.676Z"/>
    </g>
  </g>
</svg>
